REM DIRINDEX 1\5,1\2\6,1\2\7,1\3\8,1\3\9,1\4\10,1\4\11,1\4\12
REM DIRNAME cjc026,folder01,folder02,folder03,folder04,folder05,folder06,folder07,folder08,folder09,folder10,folder11
TITLE ""
FILE "EJE_DB3000_5th_4B_33.mp3" MP3
  TRACK 01 AUDIO
    TITLE "0:"
    INDEX 01 00:00:00
  TRACK 02 AUDIO
    TITLE "10:cjc026_09450"
    INDEX 01 00:00:08
  TRACK 03 AUDIO
    TITLE "0:"
    INDEX 01 00:01:27
  TRACK 04 AUDIO
    TITLE "11:cjc026_09451"
    INDEX 01 00:01:62
  TRACK 05 AUDIO
    TITLE "0:"
    INDEX 01 00:03:50
  TRACK 06 AUDIO
    TITLE "12:cjc026_09452"
    INDEX 01 00:04:10
  TRACK 07 AUDIO
    TITLE "0:"
    INDEX 01 00:05:30
  TRACK 08 AUDIO
    TITLE "10:cjc026_09453"
    INDEX 01 00:05:65
  TRACK 09 AUDIO
    TITLE "0:"
    INDEX 01 00:07:06
  TRACK 10 AUDIO
    TITLE "11:cjc026_09454"
    INDEX 01 00:07:42
  TRACK 11 AUDIO
    TITLE "0:"
    INDEX 01 00:09:16
  TRACK 12 AUDIO
    TITLE "12:cjc026_09455"
    INDEX 01 00:09:48
  TRACK 13 AUDIO
    TITLE "0:"
    INDEX 01 00:10:65
  TRACK 14 AUDIO
    TITLE "10:cjc026_09456"
    INDEX 01 00:11:25
  TRACK 15 AUDIO
    TITLE "0:"
    INDEX 01 00:12:42
  TRACK 16 AUDIO
    TITLE "11:cjc026_09457"
    INDEX 01 00:13:05
  TRACK 17 AUDIO
    TITLE "0:"
    INDEX 01 00:14:24
  TRACK 18 AUDIO
    TITLE "12:cjc026_09458"
    INDEX 01 00:14:59
  TRACK 19 AUDIO
    TITLE "0:"
    INDEX 01 00:16:01
  TRACK 20 AUDIO
    TITLE "10:cjc026_09459"
    INDEX 01 00:16:39
  TRACK 21 AUDIO
    TITLE "0:"
    INDEX 01 00:17:69
  TRACK 22 AUDIO
    TITLE "11:cjc026_09460"
    INDEX 01 00:18:32
  TRACK 23 AUDIO
    TITLE "0:"
    INDEX 01 00:20:09
  TRACK 24 AUDIO
    TITLE "12:cjc026_09461"
    INDEX 01 00:20:44
  TRACK 25 AUDIO
    TITLE "0:"
    INDEX 01 00:21:74
  TRACK 26 AUDIO
    TITLE "10:cjc026_09462"
    INDEX 01 00:22:34
  TRACK 27 AUDIO
    TITLE "0:"
    INDEX 01 00:23:48
  TRACK 28 AUDIO
    TITLE "11:cjc026_09463"
    INDEX 01 00:24:14
  TRACK 29 AUDIO
    TITLE "0:"
    INDEX 01 00:25:52
  TRACK 30 AUDIO
    TITLE "12:cjc026_09464"
    INDEX 01 00:26:15
  TRACK 31 AUDIO
    TITLE "0:"
    INDEX 01 00:27:29
  TRACK 32 AUDIO
    TITLE "10:cjc026_09465"
    INDEX 01 00:27:70
  TRACK 33 AUDIO
    TITLE "0:"
    INDEX 01 00:29:14
  TRACK 34 AUDIO
    TITLE "11:cjc026_09466"
    INDEX 01 00:29:52
  TRACK 35 AUDIO
    TITLE "0:"
    INDEX 01 00:31:02
  TRACK 36 AUDIO
    TITLE "12:cjc026_09467"
    INDEX 01 00:31:40
  TRACK 37 AUDIO
    TITLE "0:"
    INDEX 01 00:32:59
  TRACK 38 AUDIO
    TITLE "10:cjc026_09468"
    INDEX 01 00:33:19
  TRACK 39 AUDIO
    TITLE "0:"
    INDEX 01 00:34:50
  TRACK 40 AUDIO
    TITLE "11:cjc026_09469"
    INDEX 01 00:35:12
  TRACK 41 AUDIO
    TITLE "0:"
    INDEX 01 00:37:14
  TRACK 42 AUDIO
    TITLE "12:cjc026_09470"
    INDEX 01 00:37:49
  TRACK 43 AUDIO
    TITLE "0:"
    INDEX 01 00:39:04
  TRACK 44 AUDIO
    TITLE "10:cjc026_09471"
    INDEX 01 00:39:42
  TRACK 45 AUDIO
    TITLE "0:"
    INDEX 01 00:40:72
  TRACK 46 AUDIO
    TITLE "11:cjc026_09472"
    INDEX 01 00:41:35
  TRACK 47 AUDIO
    TITLE "0:"
    INDEX 01 00:43:12
  TRACK 48 AUDIO
    TITLE "12:cjc026_09473"
    INDEX 01 00:43:50
  TRACK 49 AUDIO
    TITLE "0:"
    INDEX 01 00:45:08
  TRACK 50 AUDIO
    TITLE "10:cjc026_09474"
    INDEX 01 00:45:43
  TRACK 51 AUDIO
    TITLE "0:"
    INDEX 01 00:48:34
  TRACK 52 AUDIO
    TITLE "11:cjc026_09475"
    INDEX 01 00:48:69
  TRACK 53 AUDIO
    TITLE "0:"
    INDEX 01 00:50:46
  TRACK 54 AUDIO
    TITLE "12:cjc026_09476"
    INDEX 01 00:51:03
  TRACK 55 AUDIO
    TITLE "0:"
    INDEX 01 00:53:72
  TRACK 56 AUDIO
    TITLE "10:cjc026_09477"
    INDEX 01 00:54:29
  TRACK 57 AUDIO
    TITLE "0:"
    INDEX 01 00:55:49
  TRACK 58 AUDIO
    TITLE "11:cjc026_09478"
    INDEX 01 00:56:09
  TRACK 59 AUDIO
    TITLE "0:"
    INDEX 01 00:57:36
  TRACK 60 AUDIO
    TITLE "12:cjc026_09479"
    INDEX 01 00:57:72
  TRACK 61 AUDIO
    TITLE "0:"
    INDEX 01 00:59:16
  TRACK 62 AUDIO
    TITLE "10:cjc026_09480"
    INDEX 01 00:59:51
  TRACK 63 AUDIO
    TITLE "0:"
    INDEX 01 01:01:09
  TRACK 64 AUDIO
    TITLE "11:cjc026_09481"
    INDEX 01 01:01:44
  TRACK 65 AUDIO
    TITLE "0:"
    INDEX 01 01:02:61
  TRACK 66 AUDIO
    TITLE "12:cjc026_09482"
    INDEX 01 01:03:21
  TRACK 67 AUDIO
    TITLE "0:"
    INDEX 01 01:04:51
  TRACK 68 AUDIO
    TITLE "10:cjc026_09483"
    INDEX 01 01:05:12
  TRACK 69 AUDIO
    TITLE "0:"
    INDEX 01 01:06:20
  TRACK 70 AUDIO
    TITLE "11:cjc026_09484"
    INDEX 01 01:06:58
  TRACK 71 AUDIO
    TITLE "0:"
    INDEX 01 01:08:16
  TRACK 72 AUDIO
    TITLE "12:cjc026_09485"
    INDEX 01 01:08:51
  TRACK 73 AUDIO
    TITLE "0:"
    INDEX 01 01:09:57
  TRACK 74 AUDIO
    TITLE "10:cjc026_09486"
    INDEX 01 01:10:20
  TRACK 75 AUDIO
    TITLE "0:"
    INDEX 01 01:11:50
  TRACK 76 AUDIO
    TITLE "11:cjc026_09487"
    INDEX 01 01:12:16
  TRACK 77 AUDIO
    TITLE "0:"
    INDEX 01 01:13:51
  TRACK 78 AUDIO
    TITLE "12:cjc026_09488"
    INDEX 01 01:14:12
  TRACK 79 AUDIO
    TITLE "0:"
    INDEX 01 01:15:42
  TRACK 80 AUDIO
    TITLE "10:cjc026_09489"
    INDEX 01 01:16:05
  TRACK 81 AUDIO
    TITLE "0:"
    INDEX 01 01:17:21
  TRACK 82 AUDIO
    TITLE "11:cjc026_09490"
    INDEX 01 01:17:57
  TRACK 83 AUDIO
    TITLE "0:"
    INDEX 01 01:19:06
  TRACK 84 AUDIO
    TITLE "12:cjc026_09491"
    INDEX 01 01:19:42
  TRACK 85 AUDIO
    TITLE "0:"
    INDEX 01 01:20:56
